# xmcd
#
# Track frame offsets:
#	150
#	15858
#	33621
#	53517
#	70679
#	91087
#	108234
#	120839
#	145209
#	162328
#	182747
#	198709
#	215420
#	237314
#	271722
#	291649
#
# Disc length: 4129 seconds
#
# Revision: 4
# Processed by: cddbd v1.5.2PL0 Copyright (c) Steve Scherf et al.
# Submitted via: EasyCDDAExtractor 15.3.0.1
#
DISCID=da101f10
DTITLE=Cristian - Serie 32 - CD 2
DYEAR=2001
DGENRE=Latin
TTITLE0=El Deseo De Oir Tu Voz
TTITLE1=Agua Nueva
TTITLE2=Solo Tu
TTITLE3=Señora Por Favor
TTITLE4=Morelia
TTITLE5=Por Amor A Ti
TTITLE6=Odiame
TTITLE7=Una Y Mil Veces
TTITLE8=Siempre Estaras Conmigo
TTITLE9=Nunca Jamas
TTITLE10=Sera El Amor
TTITLE11=Programame En Tu Mente
TTITLE12=Solo Dame Una Noche
TTITLE13=Para Ti
TTITLE14=Fuiste Mia
TTITLE15=No Puedo Arrancarte De Mi
EXTD=
EXTT0=
EXTT1=
EXTT2=
EXTT3=
EXTT4=
EXTT5=
EXTT6=
EXTT7=
EXTT8=
EXTT9=
EXTT10=
EXTT11=
EXTT12=
EXTT13=
EXTT14=
EXTT15=
PLAYORDER=
